<?xml version="1.0" encoding="UTF-8"?>
<svg width="144px" height="116px" viewBox="0 0 144 116" version="1.1" xmlns="http://www.w3.org/2000/svg" xmlns:xlink="http://www.w3.org/1999/xlink">
    <!-- Generator: Sketch 55 (78076) - https://sketchapp.com -->
    <title>Woiro Logo@1.5x</title>
    <desc>Created with Sketch.</desc>
    <g id="Page-1" stroke="none" stroke-width="1" fill="none" fill-rule="evenodd">
        <g id="Artboard" transform="translate(-655.000000, -432.000000)">
            <g id="Woiro-logo" transform="translate(656.000000, 433.000000)">
                <rect id="Rectangle" fill="#02819E" transform="translate(34.000000, 57.000000) rotate(-24.000000) translate(-34.000000, -57.000000) " x="22" y="1" width="24" height="112" rx="12"></rect>
                <g id="Group-5" transform="translate(39.000000, 0.000000)">
                    <path d="M33.8174732,0.909961903 L33.8784372,0.910160899 C40.475156,0.931693539 45.817543,6.27397745 45.839203,12.8706959 L46.1257685,100.146566 C46.1473558,106.721176 40.8350816,112.06845 34.2604718,112.090037 C34.2344902,112.090123 34.2085084,112.090123 34.1825268,112.090038 L34.1215628,112.089839 C27.524844,112.068306 22.182457,106.726023 22.160797,100.129304 L21.8742315,12.8534341 C21.8526442,6.27882432 27.1649184,0.931550021 33.7395282,0.909962655 C33.7655098,0.909877346 33.7914916,0.909877096 33.8174732,0.909961903 Z" id="Rectangle" fill="#B30340" transform="translate(34.000000, 56.500000) rotate(-24.000000) translate(-34.000000, -56.500000) "></path>
                    <path d="M69.5325334,0.957338983 L69.5934975,0.957537979 C76.1902163,0.979070619 81.5326033,6.32135453 81.5542632,12.9180729 L81.8408287,100.193943 C81.8624161,106.768553 76.5501418,112.115827 69.9755321,112.137414 C69.9495505,112.1375 69.9235686,112.1375 69.897587,112.137415 L69.836623,112.137216 C63.2399042,112.115684 57.8975172,106.7734 57.8758572,100.176681 L57.5892918,12.9008112 C57.5677044,6.3262014 62.8799787,0.978927101 69.4545884,0.957339736 C69.48057,0.957254426 69.5065518,0.957254176 69.5325334,0.957338983 Z" id="Rectangle" fill="#F40457" transform="translate(69.715060, 56.547377) scale(-1, 1) rotate(-24.000000) translate(-69.715060, -56.547377) "></path>
                </g>
                <rect id="Rectangle" fill="#03C9F6" transform="translate(69.715060, 57.047796) scale(-1, 1) rotate(-24.000000) translate(-69.715060, -57.047796) " x="57.7150602" y="1.04779635" width="24" height="112" rx="12"></rect>
            </g>
        </g>
    </g>
</svg>